<svg height="512" viewBox="0 0 58 43" width="512" xmlns="http://www.w3.org/2000/svg"><g id="Page-1" fill="none" fill-rule="evenodd"><g id="018---Latte-Art" fill-rule="nonzero" transform="translate(-1)"><path id="Shape" d="m43.611 34.61c-.4549433.0002249-.8527014-.3066626-.9679027-.7467787-.1152014-.440116.081192-.9025239.4779027-1.1252213 1.0790332-.5854294 2.2360012-1.0140732 3.436-1.273.384-.089.8-.176 1.225-.268 3.8-.81 8.531-1.819 9.147-6.332.0445601-.3331958.0682729-.6688488.071-1.005v-4.379c0-.5522847.4477153-1 1-1s1 .4477153 1 1v4.379c-.0027814.4227625-.0321728.8449306-.088 1.264-.808 5.918-6.768 7.188-10.713 8.029-.418.089-.818.175-1.194.262-1.0139979.2162277-1.9921137.5754874-2.905 1.067-.149349.0838386-.3177282.1279133-.489.128z" fill="#95a5a5"/><path id="Shape" d="m59 19.25v4.61c0-5.24-5.59-5.89-10.08-4.36h-.04c-1.88-1.5-1.85-1.26-1.88-2.5l1.99-2.14c.014096.0014964.0282665-.0020463.04-.01 4.47-1.48 9.97-.79 9.97 4.4z" fill="#d1d4d1"/><path id="Shape" d="m48.99 15.24c.03 1.24.01 2.69-.11 4.26-.2436146 4.9825183-1.7100988 9.8284416-4.27 14.11-3.41 5.28-9.35 9.39-19.61 9.39-22.08 0-24.19-19.07-23.99-27.76z" fill="#bdc3c7"/><path id="Shape" d="m49 15c.0012168.0369388-.0021421.0738862-.01.11.01.02 0 .03 0 .05.0100407.0257215.0100407.0542785 0 .08-.2 8.17-10.87 14.76-23.99 14.76s-23.79-6.59-23.99-14.76c-.01004066-.0257215-.01004066-.0542785 0-.08 0-.02-.01-.03 0-.05-.00785793-.0361138-.01121678-.0730612-.01-.11 0-8.28 10.75-15 24-15s24 6.72 24 15z" fill="#ecf0f1"/><ellipse id="Oval" cx="25" cy="15" fill="#a56a43" rx="20" ry="11"/><path id="Shape" d="m25 27c-11.775 0-21-5.271-21-12s9.225-12 21-12 21 5.271 21 12-9.225 12-21 12zm0-22c-10.3 0-19 4.58-19 10s8.7 10 19 10 19-4.58 19-10-8.7-10-19-10z" fill="#bdc3c7"/><path id="Shape" d="m25 40c-6.47 0-11.508-1.8-14.975-5.352-.38659932-.3954359-.37943588-1.0294007.016-1.416.3954359-.3865993 1.0294007-.3794359 1.416.016 3.079 3.152 7.636 4.752 13.543 4.752.5522847 0 1 .4477153 1 1s-.4477153 1-1 1z" fill="#fff"/><path id="Shape" d="m36 15c-.5522847 0-1 .4477153-1 1 0 2.542-4.028 4.714-9 4.974v-2.022c3.162-.233 5.293-1.51 5.837-2.452.2597437-.4569713.1064382-1.0377546-.345-1.307-.4647209-.2778199-1.0650311-.150521-1.377.292-1.1707884.9322369-2.6185163 1.4483528-4.115 1.467v-2.226c3.965-1.281 6-2.866 6-4.726 0-1.71-1.72-3-4-3-1.0432184-.01843784-2.0744913.22425504-3 .706-.9255087-.48174496-1.9567816-.72443784-3-.706-2.28 0-4 1.29-4 3 0 1.86 2.035 3.445 6 4.726v2.226c-1.4906801-.0216515-2.9330967-.5317316-4.106-1.452-.1727115-.3209394-.5063525-.5225002-.8707953-.5260692-.3644429-.003569-.7019673.1914191-.880931.5089145s-.1710225.7072132.0207263 1.0171547c.544.942 2.675 2.219 5.837 2.452v2.022c-4.972-.26-9-2.432-9-4.974 0-.5522847-.4477153-1-1-1s-1 .4477153-1 1c0 3.925 5.271 7 12 7s12-3.075 12-7c0-.5522847-.4477153-1-1-1z" fill="#fdd7ad"/></g></g></svg>